<svg width="9" height="9" viewBox="0 0 9 9" fill="none" xmlns="http://www.w3.org/2000/svg">
    <path fill-rule="evenodd" clip-rule="evenodd"
          d="M4.22289 0.0954551C4.3857 -0.0318184 4.6143 -0.0318184 4.77711 0.0954551L5.5238 0.679082L6.46227 0.546989C6.66693 0.518185 6.86488 0.632476 6.94229 0.824113L7.29711 1.7029L8.17587 2.05773C8.36752 2.13511 8.48182 2.33307 8.45302 2.53772L8.3209 3.47619L8.90456 4.22289C9.03181 4.3857 9.03181 4.6143 8.90456 4.77711L8.3209 5.5238L8.45302 6.46227C8.48182 6.66693 8.36752 6.86488 8.17587 6.94229L7.29711 7.29711L6.94229 8.17587C6.86488 8.36752 6.66693 8.48182 6.46227 8.45302L5.5238 8.3209L4.77711 8.90456C4.6143 9.03181 4.3857 9.03181 4.22289 8.90456L3.47619 8.3209L2.53772 8.45302C2.33307 8.48182 2.13511 8.36752 2.05773 8.17587L1.7029 7.29711L0.824113 6.94229C0.632476 6.86488 0.518185 6.66693 0.546989 6.46227L0.679082 5.5238L0.0954551 4.77711C-0.0318184 4.6143 -0.0318184 4.3857 0.0954551 4.22289L0.679082 3.47619L0.546989 2.53772C0.518185 2.33307 0.632476 2.13511 0.824113 2.05773L1.7029 1.7029L2.05773 0.824113C2.13511 0.632476 2.33307 0.518185 2.53772 0.546989L3.47619 0.679082L4.22289 0.0954551ZM6.1682 3.9182C6.34392 3.74247 6.34392 3.45754 6.1682 3.2818C5.99247 3.10607 5.70753 3.10607 5.53181 3.2818L4.05 4.76361L3.4682 4.18181C3.29246 4.00608 3.00754 4.00608 2.8318 4.18181C2.65607 4.35753 2.65607 4.64247 2.8318 4.8182L3.73181 5.7182C3.90753 5.89392 4.19247 5.89392 4.3682 5.7182L6.1682 3.9182Z"
          fill="#0AC45F"/>
</svg>
