<svg width="11" height="18" viewBox="0 0 11 18" fill="none" xmlns="http://www.w3.org/2000/svg">
    <path d="M1.74977 17.3959C1.58918 17.3958 1.43223 17.348 1.29875 17.2588C1.16526 17.1695 1.06123 17.0426 0.999796 16.8942C0.938359 16.7459 0.92227 16.5826 0.953562 16.4251C0.984853 16.2676 1.06212 16.1229 1.17561 16.0092L8.18369 9.00008L1.17561 1.99091C1.03209 1.83689 0.953954 1.63317 0.957667 1.42268C0.961381 1.21219 1.04665 1.01135 1.19552 0.862487C1.34438 0.713623 1.54522 0.628352 1.75571 0.624638C1.9662 0.620924 2.16992 0.699058 2.32394 0.842578L9.90727 8.42591C9.98274 8.50127 10.0426 8.59077 10.0835 8.68929C10.1243 8.78782 10.1453 8.89342 10.1453 9.00008C10.1453 9.10673 10.1243 9.21234 10.0835 9.31086C10.0426 9.40938 9.98274 9.49888 9.90727 9.57424L2.32394 17.1576C2.24878 17.2333 2.15932 17.2934 2.06076 17.3343C1.9622 17.3752 1.85649 17.3962 1.74977 17.3959Z"
          fill="black"/>
</svg>
